<svg width="40" height="40" viewBox="0 0 40 40" fill="none" xmlns="http://www.w3.org/2000/svg">
<path fill-rule="evenodd" clip-rule="evenodd" d="M14.165 31.6667C15.5458 31.6667 16.665 32.786 16.665 34.1667C16.665 35.5474 15.5458 36.6667 14.165 36.6667C12.7843 36.6667 11.665 35.5474 11.665 34.1667C11.665 32.786 12.7843 31.6667 14.165 31.6667ZM29.165 31.6667C30.5458 31.6667 31.665 32.786 31.665 34.1667C31.665 35.5474 30.5458 36.6667 29.165 36.6667C27.7843 36.6667 26.665 35.5474 26.665 34.1667C26.665 32.786 27.7843 31.6667 29.165 31.6667ZM4.9987 3.33337H8.33203C9.09137 3.33337 9.74588 3.84477 9.94046 4.56294L9.97932 4.74661L10.7875 10H34.9987C35.9983 10 36.7569 10.8678 36.6572 11.834L36.6257 12.0283L33.8724 24.418C33.3861 26.6062 31.5085 28.1906 29.2953 28.3242L28.9915 28.3334H14.5251C12.156 28.3334 10.127 26.674 9.63645 24.3832L9.58324 24.0937L6.90217 6.66671H4.9987C4.07822 6.66671 3.33203 5.92052 3.33203 5.00004C3.33203 4.14531 3.97543 3.44086 4.80433 3.34459L4.9987 3.33337H8.33203H4.9987ZM32.9214 13.3334H11.3008L12.8782 23.5868C12.9937 24.3373 13.5987 24.9064 14.3381 24.9896L14.5255 25H28.9919C29.708 25 30.336 24.5441 30.5662 23.8808L30.6189 23.6949L32.9214 13.3334Z" fill="black"/>
</svg>
