<svg width="217" height="45" viewBox="0 0 217 45" fill="none" xmlns="http://www.w3.org/2000/svg">
<path fill-rule="evenodd" clip-rule="evenodd" d="M63.78 22.09C63.78 34.29 53.89 44.18 41.69 44.18C38.17 44.18 34.84 43.36 31.89 41.89C28.94 43.35 25.6 44.18 22.09 44.18C9.89 44.18 0 34.29 0 22.09C0 9.89 9.89 0 22.09 0C25.61 0 28.93 0.819999 31.88 2.28C34.83 0.819999 38.16 0 41.68 0C53.89 0 63.78 9.89 63.78 22.09ZM59.42 22.09C59.42 12.3 51.48 4.35999 41.69 4.35999C39.83 4.35999 38.03 4.64999 36.34 5.17999C39.73 8.00999 42.19 11.8 43.4 16.18L38.83 16.19C37.54 12.52 35.08 9.42 31.89 7.31C28.71 9.42 26.26 12.53 24.97 16.19L20.4 16.18C21.6 11.81 24.11 7.99 27.49 5.16C25.8 4.63 23.97 4.35999 22.11 4.35999C12.32 4.35999 4.38 12.3 4.38 22.09C4.38 31.88 12.32 39.82 22.11 39.82C23.96 39.82 25.74 39.54 27.42 39.01C23.03 35.31 20.17 29.93 19.68 23.87H30.19V28.2L25.08 28.27C26.4 31.81 28.81 34.82 31.91 36.87C35.02 34.81 37.41 31.82 38.73 28.27L33.62 28.2V23.87H44.12C43.64 29.94 40.71 35.3 36.31 38.99C38.01 39.53 39.82 39.82 41.69 39.82C51.48 39.82 59.42 31.88 59.42 22.09Z" fill="black"/>
<path fill-rule="evenodd" clip-rule="evenodd" d="M83.4 38.3699C78.92 38.3699 66.54 35.5699 66.54 22.4199C66.54 9.26994 78.33 6.42993 83.09 6.42993C87.85 6.42993 92.92 7.29993 95.86 9.25993V15.4199C95.86 16.1899 94.81 16.1199 94.81 15.4199C94.74 14.3699 91.94 8.06994 84.95 8.20994C77.39 8.35994 72.29 14.2999 72.29 22.1299C72.29 29.9699 77.26 36.6799 84.74 36.4699C87.17 36.3999 89.71 35.6299 90.94 34.6099L90.97 27.7899C90.97 25.8299 89.78 25.1299 88.59 25.1299C87.82 25.1299 87.82 24.0099 88.59 24.0099H98.8C99.57 24.0099 99.57 25.1999 98.8 25.1299C97.61 25.1299 96.42 25.8299 96.42 27.7899V34.7899C93.9 37.0399 87.88 38.3699 83.4 38.3699Z" fill="black"/>
<path fill-rule="evenodd" clip-rule="evenodd" d="M153.1 38.3699C157.58 38.3699 163.38 35.9899 166.46 33.7499V28.0099C166.46 27.2399 165.97 27.0999 165.69 28.0799C165.41 29.0599 161.84 36.4799 154.36 36.6899C146.87 36.8999 141.98 29.9699 141.98 22.1399C141.98 14.2999 147.09 8.15987 154.64 8.00987C161.64 7.86987 164.43 14.3799 164.5 15.4299C164.5 16.1299 165.27 16.1999 165.27 15.4299V9.26987C162.33 7.30987 157.5 6.11987 152.75 6.11987C148 6.11987 136.24 9.26988 136.24 22.4199C136.24 35.5699 148.62 38.3699 153.1 38.3699Z" fill="black"/>
<path fill-rule="evenodd" clip-rule="evenodd" d="M216 36.5499C214.81 36.5499 213.62 35.8499 213.62 33.8899V10.5899C213.62 8.62988 214.81 7.92988 216 7.92988C217.12 7.92988 217.12 6.87988 216 6.87988H205.72C204.6 6.87988 204.6 7.92988 205.72 7.92988C206.91 7.92988 208.1 8.62988 208.1 10.5899V33.8899C208.1 35.8499 206.91 36.5499 205.72 36.5499C204.6 36.5499 204.6 37.9499 205.72 37.9499H216C217.11 37.9499 217.11 36.5499 216 36.5499Z" fill="black"/>
<path fill-rule="evenodd" clip-rule="evenodd" d="M102.54 7.93989C103.73 7.93989 104.92 8.63988 104.92 10.5999V25.8899C104.92 33.2099 110.65 38.5899 117.97 38.5899C125.29 38.5899 131.23 33.2099 131.23 25.8899L131.37 10.5999C131.37 8.63988 132.56 7.93989 133.75 7.93989C134.87 7.93989 134.87 6.88989 133.75 6.88989H126.61C125.49 6.88989 125.49 7.93989 126.61 7.93989C127.8 7.93989 128.99 8.63988 128.99 10.5999L129.24 26.6199C129.24 31.7799 125.05 37.0199 119.89 37.0199C114.73 37.0199 110.51 32.8299 110.51 27.6699L110.52 10.5999C110.52 8.63988 111.71 7.93989 112.9 7.93989C114.02 7.93989 114.02 6.88989 112.9 6.88989H102.55C101.42 6.88989 101.42 7.93989 102.54 7.93989Z" fill="black"/>
<path fill-rule="evenodd" clip-rule="evenodd" d="M187.82 38.3699C192.3 38.3699 198.1 35.9899 201.18 33.7499V28.0099C201.18 27.2399 200.69 27.0999 200.41 28.0799C200.13 29.0599 196.56 36.4799 189.08 36.6899C181.59 36.8999 176.7 29.9699 176.7 22.1399C176.7 14.2999 181.81 8.15987 189.36 8.00987C196.36 7.86987 199.15 14.3799 199.22 15.4299C199.22 16.1299 199.99 16.1999 199.99 15.4299V9.26987C197.05 7.30987 192.22 6.11987 187.47 6.11987C182.71 6.11987 170.96 9.26988 170.96 22.4199C170.95 35.5699 183.34 38.3699 187.82 38.3699Z" fill="black"/>
</svg>
