<svg width="40" height="40" viewBox="0 0 40 40" fill="none" xmlns="http://www.w3.org/2000/svg">
<path fill-rule="evenodd" clip-rule="evenodd" d="M13.785 8.25422C11.955 8.25422 10.1267 8.91589 8.73337 10.2409C7.40004 11.5109 6.66504 13.1959 6.66504 14.9859C6.66504 16.7742 7.40004 18.4592 8.73337 19.7292L19.9984 30.4492L31.2634 19.7292C32.5967 18.4592 33.3317 16.7742 33.3317 14.9859C33.3317 13.1976 32.5967 11.5109 31.2634 10.2409C28.4784 7.59089 23.945 7.59089 21.16 10.2409L19.9984 11.3476L18.8367 10.2409C17.4434 8.91589 15.615 8.25422 13.785 8.25422ZM19.9987 34.9992L6.41036 22.0676C4.42536 20.1792 3.33203 17.6642 3.33203 14.9859C3.33203 12.3076 4.42536 9.79256 6.41036 7.90256C10.1104 4.38089 15.9187 4.06422 19.9987 6.94756C24.0787 4.06422 29.887 4.38089 33.587 7.90256C35.572 9.79256 36.6654 12.3076 36.6654 14.9859C36.6654 17.6642 35.572 20.1792 33.587 22.0676L19.9987 34.9992Z" fill="black"/>
</svg>
