<svg width="279" height="63" viewBox="0 0 279 63" fill="none" xmlns="http://www.w3.org/2000/svg">
<path d="M57.5752 5.23535L28.8984 62.2129L0.255859 5.23535H14.2354L28.8984 34.3906L43.5957 5.23535H57.5752ZM77.0918 5.16699V57.5645H64.582V5.16699H77.0918ZM135.676 5.20117V62.3154L98.7617 29.0244V57.5645H86.252V0.928711L123.166 34.2197V5.20117H135.676ZM192.072 5.20117V17.7109H174.128V57.5645H161.618V17.7109H143.571V5.20117H192.072ZM212.58 5.16699V57.5645H200.07V5.16699H212.58ZM240.778 34.4932L248.571 24.7178L261.457 35.0059C261.594 34.4932 261.696 33.9463 261.765 33.3994C261.901 32.2373 261.901 31.0752 261.799 29.9131C261.56 27.9648 260.979 26.1533 260.056 24.4443C259.099 22.7354 257.868 21.2656 256.33 20.0352C254.792 18.8047 253.083 17.916 251.237 17.4033C249.357 16.8564 247.443 16.6855 245.495 16.8906C243.547 17.1299 241.701 17.7109 239.992 18.6338C238.317 19.5908 236.848 20.8213 235.617 22.3594C234.387 23.8975 233.498 25.5723 232.951 27.4521C232.438 29.332 232.268 31.2461 232.473 33.1943C232.712 35.1426 233.293 36.9883 234.216 38.6973C235.139 40.3721 236.369 41.8418 237.907 43.0723C239.445 44.3027 241.154 45.1914 243.034 45.7383C244.914 46.251 246.828 46.4219 248.776 46.2168C249.938 46.0801 251.066 45.8066 252.16 45.4307C252.673 45.2598 253.186 45.0205 253.664 44.7812L240.778 34.4932ZM270.48 58.2139L263.952 53.0186C263.576 53.3262 263.166 53.5996 262.756 53.9072C261.97 54.4541 261.149 54.9668 260.295 55.4453C257.116 57.1885 253.732 58.248 250.144 58.6582C246.555 59.0342 243.034 58.7266 239.548 57.7354C236.096 56.7441 232.951 55.1035 230.114 52.8477C227.312 50.5918 225.021 47.8916 223.244 44.7129C221.501 41.5342 220.441 38.1846 220.031 34.5957C219.655 31.0068 219.963 27.4863 220.954 24C221.945 20.5137 223.586 17.3691 225.842 14.5664C228.063 11.7295 230.764 9.43945 233.942 7.69629C237.121 5.95312 240.505 4.89355 244.094 4.4834C247.683 4.07324 251.203 4.38086 254.689 5.37207C258.176 6.39746 261.32 8.03809 264.123 10.2598C266.96 12.5156 269.25 15.2158 270.993 18.3945C272.736 21.5732 273.796 24.9229 274.206 28.5117C274.616 32.1006 274.309 35.6553 273.317 39.1074C273.044 40.0303 272.736 40.9531 272.36 41.876C272.189 42.3203 271.984 42.7988 271.745 43.2432L278.273 48.4385L270.48 58.2139Z" fill="black"/>
</svg>
