<svg width="20" height="20" viewBox="0 0 20 20" fill="none" xmlns="http://www.w3.org/2000/svg">
<path d="M9.58268 18.1253C4.87435 18.1253 1.04102 14.292 1.04102 9.58366C1.04102 4.87533 4.87435 1.04199 9.58268 1.04199C14.291 1.04199 18.1243 4.87533 18.1243 9.58366C18.1243 14.292 14.291 18.1253 9.58268 18.1253ZM9.58268 2.29199C5.55768 2.29199 2.29102 5.56699 2.29102 9.58366C2.29102 13.6003 5.55768 16.8753 9.58268 16.8753C13.6077 16.8753 16.8743 13.6003 16.8743 9.58366C16.8743 5.56699 13.6077 2.29199 9.58268 2.29199Z" fill="black"/>
<path d="M18.3326 18.9585C18.1742 18.9585 18.0159 18.9002 17.8909 18.7752L16.2242 17.1085C15.9826 16.8669 15.9826 16.4669 16.2242 16.2252C16.4659 15.9835 16.8659 15.9835 17.1076 16.2252L18.7742 17.8919C19.0159 18.1335 19.0159 18.5335 18.7742 18.7752C18.6492 18.9002 18.4909 18.9585 18.3326 18.9585Z" fill="black"/>
</svg>
