<svg width="40" height="40" viewBox="0 0 40 40" fill="none" xmlns="http://www.w3.org/2000/svg">
<path fill-rule="evenodd" clip-rule="evenodd" d="M11.6654 26.6667H28.332C32.9344 26.6667 36.6654 30.3977 36.6654 35C36.6654 35.9205 35.9192 36.6667 34.9987 36.6667C34.144 36.6667 33.4395 36.0233 33.3432 35.1944L33.3235 34.7063C33.1771 32.1788 31.1533 30.155 28.6258 30.0085L28.332 30H11.6654C8.90394 30 6.66536 32.2386 6.66536 35C6.66536 35.9205 5.91917 36.6667 4.9987 36.6667C4.07822 36.6667 3.33203 35.9205 3.33203 35C3.33203 30.5188 6.86921 26.8637 11.3039 26.6744L11.6654 26.6667H28.332H11.6654ZM19.999 3.33337C25.5219 3.33337 29.999 7.81053 29.999 13.3334C29.999 18.8562 25.5219 23.3334 19.999 23.3334C14.4762 23.3334 9.99902 18.8562 9.99902 13.3334C9.99902 7.81053 14.4762 3.33337 19.999 3.33337ZM19.9987 6.66671C16.3168 6.66671 13.332 9.65148 13.332 13.3334C13.332 17.0153 16.3168 20 19.9987 20C23.6806 20 26.6654 17.0153 26.6654 13.3334C26.6654 9.65148 23.6806 6.66671 19.9987 6.66671Z" fill="black"/>
</svg>
