<svg width="35" height="34" viewBox="0 0 35 34" fill="none" xmlns="http://www.w3.org/2000/svg">
<path d="M17.5003 30.6708C17.0482 30.6708 16.6107 30.6141 16.2462 30.4866C10.6753 28.6308 1.82324 22.0433 1.82324 12.3108C1.82324 7.35243 5.95033 3.3291 11.0253 3.3291C13.4899 3.3291 15.7941 4.2641 17.5003 5.93577C19.2066 4.2641 21.5107 3.3291 23.9753 3.3291C29.0503 3.3291 33.1774 7.3666 33.1774 12.3108C33.1774 22.0574 24.3253 28.6308 18.7545 30.4866C18.3899 30.6141 17.9524 30.6708 17.5003 30.6708ZM11.0253 5.4541C7.16074 5.4541 4.01074 8.52827 4.01074 12.3108C4.01074 21.9866 13.592 27.3699 16.9607 28.4891C17.2232 28.5741 17.792 28.5741 18.0545 28.4891C21.4087 27.3699 31.0045 22.0008 31.0045 12.3108C31.0045 8.52827 27.8545 5.4541 23.9899 5.4541C21.7732 5.4541 19.717 6.45994 18.3899 8.20244C17.9816 8.74077 17.0482 8.74077 16.6399 8.20244C15.2837 6.44577 13.242 5.4541 11.0253 5.4541Z" fill="#FDFDFD"/>
</svg>
